<svg id="Layer_1" data-name="Layer 1" xmlns="http://www.w3.org/2000/svg" viewBox="0 0 295.52 101.76"><defs><style>.cls-1{fill:#fcb566;}.cls-2{fill:#fff;}</style></defs><path class="cls-1" d="M63.25,35.76a194.51,194.51,0,0,1-10.39,18A192.68,192.68,0,0,1,40.73,70.65,21.62,21.62,0,0,0,65.22,38.43,20.22,20.22,0,0,0,63.25,35.76ZM55,47.81c1.11-1.83,2.18-3.65,3.18-5.43Q56.68,45.05,55,47.81Zm-2.49,4-.8,1.24-.82,1.25c.29-.41.57-.84.84-1.27Zm-7.33,10.8c1.63-2.23,3.28-4.61,4.9-7.08C48.45,58,46.8,60.37,45.18,62.62Z"/><path class="cls-1" d="M61.24,33.74a191.58,191.58,0,0,1-10.66,18.6A191.58,191.58,0,0,1,38.06,69.67a21.53,21.53,0,0,1-6.51-4.5c-.34-.34-.67-.69-1-1.06a21.22,21.22,0,0,1-2-2.67,21.63,21.63,0,0,1,24.5-32.23c.47.14.91.29,1.36.46A21.26,21.26,0,0,1,61.24,33.74Z"/><path class="cls-2" d="M40.73,70.65c-1.38,1.7-2.74,3.27-4,4.68a36.11,36.11,0,0,1-6.93,6.29c-2.44,1.54-3.35.94-3.76.69-1.9-1.23-1.08-5.86,2.45-13.76.63-1.4,1.33-2.9,2.11-4.44.31.37.64.72,1,1.06-.68,1.35-1.31,2.68-1.87,3.94C25.87,77.67,26,80.72,26.74,81.17s3.27-.52,9-6.75q1.44-1.56,3-3.39h0c.24-.27.46-.55.69-.82h0C39.82,70.36,40.27,70.51,40.73,70.65Z"/><path class="cls-2" d="M63.25,35.76a194.51,194.51,0,0,1-10.39,18A192.68,192.68,0,0,1,40.73,70.65c-.46-.14-.91-.29-1.36-.46h0c.18-.23.37-.45.56-.68s.37-.46.56-.7c1-1.26,2-2.6,3.08-4,.53-.72,1.08-1.45,1.62-2.21,1.63-2.23,3.28-4.61,4.9-7.08q.41-.6.81-1.23c.29-.41.57-.84.84-1.27l.78-1.22c.25-.41.52-.82.78-1.23.58-.93,1.15-1.86,1.71-2.78h0c1.11-1.83,2.18-3.65,3.18-5.43q.76-1.34,1.47-2.64c.42-.77.83-1.54,1.22-2.29s.71-1.36,1-2l.36-.71C62.61,35,62.93,35.4,63.25,35.76Z"/><path class="cls-2" d="M65.86,30.16c-.75,1.76-1.63,3.63-2.61,5.6-.32-.36-.64-.72-1-1,.09-.19.19-.38.27-.56.77-1.57,1.46-3.09,2.08-4.52,3.32-7.74,3.1-10.52,2.45-10.94-.83-.53-4.52,1.11-12.62,11-.45-.17-.89-.32-1.36-.46C58.31,22.81,65,15.74,67.8,17.55,68.47,18,70.51,19.3,65.86,30.16Z"/><path class="cls-2" d="M80.46,62c1.59,8.6,7.77,13.19,16.81,13.19,9.5,0,15.53-4.74,15.53-12.58,0-7.46-3.24-11-15.53-14.32-10.7-2.87-15.75-6-15.75-13.8S87.47,22,97.05,22c11.6,0,15.52,6.94,16.35,12.82h-1.51c-1.35-7-6.1-11.46-14.92-11.46-8.21,0-13.87,3.69-13.87,11,0,6.86,4.07,9.8,14.32,12.44,14.1,3.62,17,8.29,17,15.68,0,8.66-6.48,14.09-17.18,14.09-10.93,0-16.81-5.8-18.32-14.55Z"/><path class="cls-2" d="M150.78,67.37a66.4,66.4,0,0,0,.38,8.44h-1.51a67.93,67.93,0,0,1-.38-8.37c-2,6.33-6.78,9.27-13.64,9.27-9,0-12.58-5.35-12.58-10.7,0-8.07,6.25-11.38,16.73-11.38,4.29,0,6.78,0,9.49.07V49.43c0-5.43-2.26-10.63-11.15-10.63-8.29,0-11.16,4.15-11.68,9.87h-1.51c.3-5.42,3.32-11.23,13.26-11.23,9,0,12.59,5,12.59,11.53Zm-1.51-11.31c-2.56-.08-5.65-.08-9.57-.08-10.17,0-15.07,3.25-15.07,10,0,5.81,4.6,9.35,11.08,9.35,8.74,0,13.56-5.35,13.56-15.6Z"/><path class="cls-2" d="M157.71,38.35h7V25.91h1.51V38.35h9.35V39.7h-9.35V68c0,4.07.83,7.09,5.5,7.09a9.24,9.24,0,0,0,3-.38v1.36a8.94,8.94,0,0,1-3.09.45c-5,0-6.94-2.19-6.94-8.89v-28h-7Z"/><path class="cls-2" d="M209.87,65.56c0,3.69.07,8.59.07,10.25h-1.5c-.08-.53-.23-5.58-.15-9.27-1.74,5.65-6,10-13.42,10-5.27,0-13-2.41-13-14.09V38.35h1.5V63.07c0,6.18,3.25,12.06,11.54,12.06,7.76,0,13.34-5.28,13.34-16.21V38.35h1.58Z"/><path class="cls-2" d="M222.68,51.16c0-8.21,0-10.48-.08-12.81H224c.15,1.88.15,6.18.15,10.85,1.88-6.56,8.14-11.53,14.17-11.76V39c-7.69.3-14.17,8-14.17,16.66v20.2h-1.51Z"/><path class="cls-2" d="M245.51,47.47c0-3.7-.07-8.29-.07-9.12H247c.07,1.73.15,5,.07,9.42,1.36-4.07,5.2-10.33,14.25-10.33,6.25,0,12.66,3.62,12.66,14.47v23.9h-1.58V52.07c0-7.47-3.62-13.2-11.31-13.2-9,0-14,7.54-14,16.36V75.81h-1.51Z"/></svg>