<svg id="Layer_1" data-name="Layer 1" xmlns="http://www.w3.org/2000/svg" viewBox="0 0 93.45 101.76"><defs><style>.cls-1{fill:#fcb566;}.cls-2{fill:#fff;}</style></defs><path class="cls-1" d="M63.25,35.76a194.51,194.51,0,0,1-10.39,18A192.68,192.68,0,0,1,40.73,70.65,21.62,21.62,0,0,0,65.22,38.43,20.22,20.22,0,0,0,63.25,35.76ZM55,47.81c1.11-1.83,2.18-3.65,3.18-5.43Q56.68,45.05,55,47.81Zm-2.49,4-.8,1.24-.82,1.25c.29-.41.57-.84.84-1.27Zm-7.33,10.8c1.63-2.23,3.28-4.61,4.9-7.08C48.45,58,46.8,60.37,45.18,62.62Z"/><path class="cls-1" d="M61.24,33.74a191.58,191.58,0,0,1-10.66,18.6A191.58,191.58,0,0,1,38.06,69.67a21.53,21.53,0,0,1-6.51-4.5c-.34-.34-.67-.69-1-1.06a21.22,21.22,0,0,1-2-2.67,21.63,21.63,0,0,1,24.5-32.23c.47.14.91.29,1.36.46A21.26,21.26,0,0,1,61.24,33.74Z"/><path class="cls-2" d="M40.73,70.65c-1.38,1.7-2.74,3.27-4,4.68a36.11,36.11,0,0,1-6.93,6.29c-2.44,1.54-3.35.94-3.76.69-1.9-1.23-1.08-5.86,2.45-13.76.63-1.4,1.33-2.9,2.11-4.44.31.37.64.72,1,1.06-.68,1.35-1.31,2.68-1.87,3.94C25.87,77.67,26,80.72,26.74,81.17s3.27-.52,9-6.75q1.44-1.56,3-3.39h0c.24-.27.46-.55.69-.82h0C39.82,70.36,40.27,70.51,40.73,70.65Z"/><path class="cls-2" d="M63.25,35.76a194.51,194.51,0,0,1-10.39,18A192.68,192.68,0,0,1,40.73,70.65c-.46-.14-.91-.29-1.36-.46h0c.18-.23.37-.45.56-.68s.37-.46.56-.7c1-1.26,2-2.6,3.08-4,.53-.72,1.08-1.45,1.62-2.21,1.63-2.23,3.28-4.61,4.9-7.08q.41-.6.81-1.23c.29-.41.57-.84.84-1.27l.78-1.22c.25-.41.52-.82.78-1.23.58-.93,1.15-1.86,1.71-2.78h0c1.11-1.83,2.18-3.65,3.18-5.43q.76-1.34,1.47-2.64c.42-.77.83-1.54,1.22-2.29s.71-1.36,1-2l.36-.71C62.61,35,62.93,35.4,63.25,35.76Z"/><path class="cls-2" d="M65.86,30.16c-.75,1.76-1.63,3.63-2.61,5.6-.32-.36-.64-.72-1-1,.09-.19.19-.38.27-.56.77-1.57,1.46-3.09,2.08-4.52,3.32-7.74,3.1-10.52,2.45-10.94-.83-.53-4.52,1.11-12.62,11-.45-.17-.89-.32-1.36-.46C58.31,22.81,65,15.74,67.8,17.55,68.47,18,70.51,19.3,65.86,30.16Z"/></svg>